<?xml version="1.0" encoding="UTF-8" standalone="no"?>
<svg
   xmlns:dc="http://purl.org/dc/elements/1.1/"
   xmlns:cc="http://creativecommons.org/ns#"
   xmlns:rdf="http://www.w3.org/1999/02/22-rdf-syntax-ns#"
   xmlns:svg="http://www.w3.org/2000/svg"
   xmlns="http://www.w3.org/2000/svg"
   xmlns:sodipodi="http://sodipodi.sourceforge.net/DTD/sodipodi-0.dtd"
   xmlns:inkscape="http://www.inkscape.org/namespaces/inkscape"
   inkscape:export-ydpi="1097.2798"
   inkscape:export-xdpi="1097.2798"
   inkscape:export-filename="F:\PyGame\Mastermind\default_logo.png"
   inkscape:version="1.0 (4035a4fb49, 2020-05-01)"
   sodipodi:docname="default_logo.svg"
   id="svg8"
   version="1.1"
   viewBox="0 0 25.000002 25.000002"
   height="25.000002mm"
   width="25.000002mm">
  <defs
     id="defs2" />
  <sodipodi:namedview
     fit-margin-bottom="0"
     fit-margin-right="0"
     fit-margin-left="0"
     fit-margin-top="0"
     inkscape:snap-global="false"
     inkscape:snap-bbox-midpoints="true"
     inkscape:snap-bbox-edge-midpoints="true"
     inkscape:bbox-nodes="true"
     inkscape:bbox-paths="true"
     inkscape:snap-bbox="true"
     inkscape:snap-page="true"
     inkscape:snap-text-baseline="true"
     inkscape:snap-center="true"
     inkscape:snap-object-midpoints="true"
     inkscape:snap-midpoints="true"
     inkscape:snap-smooth-nodes="true"
     inkscape:snap-intersection-paths="true"
     inkscape:object-paths="true"
     inkscape:window-maximized="0"
     inkscape:window-y="0"
     inkscape:window-x="1273"
     inkscape:window-height="1368"
     inkscape:window-width="2558"
     showgrid="false"
     inkscape:document-rotation="0"
     inkscape:current-layer="layer1"
     inkscape:document-units="mm"
     inkscape:cy="48.86637"
     inkscape:cx="68.45249"
     inkscape:zoom="3.5529762"
     inkscape:pageshadow="2"
     inkscape:pageopacity="0.0"
     borderopacity="1.0"
     bordercolor="#666666"
     pagecolor="#ffffff"
     id="base" />
  <metadata
     id="metadata5">
    <rdf:RDF>
      <cc:Work
         rdf:about="">
        <dc:format>image/svg+xml</dc:format>
        <dc:type
           rdf:resource="http://purl.org/dc/dcmitype/StillImage" />
        <dc:title />
      </cc:Work>
    </rdf:RDF>
  </metadata>
  <g
     transform="translate(-5.0000002,-5)"
     id="layer1"
     inkscape:groupmode="layer"
     inkscape:label="Taso 1">
    <path
       style="fill:#ffffff;fill-opacity:1;stroke-width:0.416666"
       d="m 17.583327,19.525564 c -7.124991,0 -12.5833246,-2.95833 -12.5833246,3.666677 0,5.333323 7.0416716,6.791653 12.4166636,6.791653 6.249999,0 12.583337,-1.45833 12.583337,-6.791653 0,-6.625007 -5.083338,-3.666677 -12.416676,-3.666677"
       fill="#89664c"
       id="path877" />
    <path
       style="fill:#c0c0c0;fill-opacity:1;stroke-width:0.416666"
       d="m 17.374997,12.858904 c -4,0 -10.2083287,0.45833 -10.2083287,5.249999 0,6.999999 20.6250047,6.999999 20.6250047,0 0.04173,-4.791669 -6.166677,-5.249999 -10.416676,-5.249999"
       fill="#9b7861"
       id="path879" />
    <path
       style="fill:#808080;fill-opacity:1;stroke-width:0.416666"
       d="m 24.583342,11.108904 c -1.916677,-4.2916689 -11.000014,0.125039 -9.416676,-5.0833382 0.25,-0.7916692 0.208331,-1.124992 -0.374992,-0.9999999 -3.25,0.6666771 -5.6250074,3.9999997 -4.791669,6.7916691 2.666661,8.91666 17.208329,5.125007 14.583337,-0.708331"
       fill="#a88673"
       id="path881" />
    <path
       style="stroke-width:0.416666"
       d="m 16.166666,18.442242 c 0,1.666661 -1.333339,2.999999 -3,2.999999 -1.666661,0 -3,-1.333338 -3,-2.999999 0,-1.666677 1.333339,-3 3,-3 1.666661,0 3,1.333323 3,3"
       fill="#ffffff"
       id="path883" />
    <circle
       style="stroke-width:0.416666"
       cx="14.000002"
       cy="18.442234"
       r="1.4999999"
       fill="#231f20"
       id="circle885" />
    <path
       style="stroke-width:0.416666"
       d="m 24.833342,18.442242 c 0,1.666661 -1.333338,2.999999 -2.999999,2.999999 -1.666677,0 -3.000016,-1.333338 -3.000016,-2.999999 0,-1.666677 1.333339,-3 3.000016,-3 1.624992,0 2.999999,1.333323 2.999999,3"
       fill="#ffffff"
       id="path887" />
    <circle
       id="circle889"
       r="1.4999998"
       cy="18.44224"
       cx="21"
       style="fill:#231f20;stroke-width:0.416667" />
    <path
       id="path891"
       d="m 20,25.233905 c 0,1.375 -1.125,2.499999 -2.499999,2.499999 -1.375,0 -2.5,-1.124999 -2.5,-2.499999 0,-1.375 1.125,-2.5 2.5,-2.5 1.374999,0 2.499999,1.125 2.499999,2.5"
       style="fill:#231f20;stroke-width:0.416667" />
    <path
       style="fill:#800000;fill-opacity:1;stroke-width:0.00673713"
       inkscape:connector-curvature="0"
       id="path3029"
       d="m 26.550666,10.17425 q 0,-0.714155 -0.505274,-1.219452 Q 25.540119,8.449502 24.826,8.449502 q -0.714121,0 -1.219394,0.505296 -0.505273,0.505297 -0.505273,1.219452 0,0.714151 0.505273,1.219447 0.505273,0.505297 1.219394,0.505297 0.714119,0 1.219392,-0.505297 0.505274,-0.505296 0.505274,-1.219447 z M 30,9.439885 v 1.495678 q 0,0.08085 -0.0539,0.154956 -0.0539,0.07411 -0.13474,0.08759 l -1.24634,0.188645 q -0.128004,0.363812 -0.262743,0.613092 0.235795,0.336865 0.720857,0.929747 0.06737,0.08085 0.06737,0.168432 0,0.08759 -0.06063,0.154957 -0.181901,0.24928 -0.666961,0.727627 -0.485064,0.478349 -0.633276,0.478349 -0.08085,0 -0.175162,-0.06063 l -0.929703,-0.727627 q -0.296427,0.154958 -0.613066,0.256017 -0.107792,0.916271 -0.195373,1.253135 -0.04716,0.188645 -0.24253,0.188645 h -1.49561 q -0.09432,0 -0.165055,-0.05727 -0.07074,-0.05727 -0.07748,-0.144852 L 23.64702,13.906716 Q 23.316918,13.79891 23.0407,13.657427 l -0.949912,0.720891 q -0.06737,0.06063 -0.168426,0.06063 -0.09431,0 -0.168424,-0.07411 -0.848861,-0.768051 -1.111603,-1.131864 -0.04716,-0.06737 -0.04716,-0.154957 0,-0.08085 0.0539,-0.154958 0.101056,-0.141482 0.343587,-0.44803 0.242531,-0.306545 0.363797,-0.474977 -0.181899,-0.336867 -0.276218,-0.666994 l -1.232867,-0.181906 q -0.08758,-0.01348 -0.141476,-0.08422 -0.0539,-0.07074 -0.0539,-0.158326 V 9.41293 q 0,-0.08085 0.0539,-0.154958 0.0539,-0.07411 0.128004,-0.08758 L 21.08698,8.981747 Q 21.1813,8.671833 21.34972,8.361916 21.080241,7.977891 20.628865,7.432169 q -0.06737,-0.08085 -0.06737,-0.161692 0,-0.06737 0.06063,-0.154959 0.17516,-0.2425418 0.663591,-0.7242582 0.48843,-0.4817164 0.636645,-0.4817164 0.08758,0 0.175161,0.06737 L 23.027225,6.697802 Q 23.323654,6.5428416 23.64029,6.441782 23.748081,5.5255096 23.835663,5.1886452 23.882821,5 24.078193,5 h 1.49561 q 0.09431,0 0.165057,0.05727 0.07074,0.05727 0.07748,0.1448519 l 0.188637,1.2396613 q 0.330111,0.1077958 0.606328,0.2492788 l 0.956651,-0.7208814 q 0.06063,-0.060634 0.161687,-0.060634 0.08759,0 0.168424,0.06737 0.86907,0.8017372 1.111601,1.1453374 0.04716,0.0539 0.04716,0.148223 0,0.08085 -0.0539,0.154955 -0.101055,0.141483 -0.343585,0.44803 -0.242533,0.306548 -0.363797,0.47498 0.175161,0.336864 0.276215,0.660255 l 1.232867,0.188642 q 0.08759,0.01348 0.141477,0.08422 0.0539,0.07074 0.0539,0.158329 z" />
  </g>
</svg>
